{"title":"Adam 2009 720p HDRip x264-titler","magnet":"magnet:?xt=urn:btih:f55950ef754f513564d96553e231b0415ca82378&dn=Adam+2009+720p+HDRip+x264-titler&tr=udp%3A%2F%2Ftracker.leechers-paradise.org%3A6969&tr=udp%3A%2F%2Fzer0day.ch%3A1337&tr=udp%3A%2F%2Fopen.demonii.com%3A1337&tr=udp%3A%2F%2Ftracker.coppersurfer.tk%3A6969&tr=udp%3A%2F%2Fexodus.desync.com%3A6969","uploader":"movieZ.freak","categoryP":"video","categoryS":"hd___movies","size":"1199606516","seeders":"2","leechers":"13","description":"SOURCE:\r\n--------------\r\nAdam 2009 1080p HDTV x264\r\n\r\n <a href=\"\nhttps://www.imdb.com/title/tt1185836/\" rel=\"nofollow\" target=\"_NEW\">\nhttps://www.imdb.com/title/tt1185836/</a>\r\n <a href=\"\nhttps://www.rottentomatoes.com/m/1208105_adam?\" rel=\"nofollow\" target=\"_NEW\">\nhttps://www.rottentomatoes.com/m/1208105_adam?</a>\r\n <a href=\"\nhttps://en.wikipedia.org/wiki/Adam_(2009_film)\" rel=\"nofollow\" target=\"_NEW\">\nhttps://en.wikipedia.org/wiki/Adam_(2009_film)</a>\r\n\r\n\r\n- SAMPLE: Yes\r\n\r\n- SUBTITLE: English\r\n\r\n- LANGUAGE / AUDIO: English\r\n\r\n\r\nSCREENSHOTS:\r\n------------------- <a href=\"\nhttps://imgur.com/a/xmIG8o7\" rel=\"nofollow\" target=\"_NEW\">\nhttps://imgur.com/a/xmIG8o7</a>\r\n\r\n\r\nDIRECTOR: Max Mayer\r\n\r\n\r\nCAST: Hugh Dancy, Rose Byrne, Peter Gallagher, Amy Irving, Frankie Faison, Mark Linn-Baker, Haviland Morris, Adam LeFevre, ...\r\n\r\n\r\nPLOT:\r\n-----------\r\nAdam, a lonely man with Asperger&apos;s Syndrome, develops a relationship with his upstairs neighbor, Beth. \r\n************************************\r\n\r\n- Duration: 1h 38min\r\n\r\n- Nominal bit rate: 1454 kb/s\r\n\r\n- Res: 1280 x 720\r\n\r\n- AR: 16:9\r\n\r\n- FPS: 23.976 FPS\r\n\r\n- Audio: AAC, 2 channels, 128 Kbps\r\n\r\n************************************\r\n\r\nGeneral\r\n--------------\r\nFormat : Matroska\r\nFormat version : Version 4 / Version 2\r\nFile size : 1.10 GiB\r\nDuration : 1h 38min\r\nOverall bit rate : 1586 kb/s\r\nEncoded date : UTC 2018-09-10 06:32:51\r\nWriting application : mkvmerge v26.0.0 (&apos;In The Game&apos;) 64-bit\r\nWriting library : libebml v1.3.6 + libmatroska v1.4.9\r\n\r\nVideo\r\n-----------\r\nFormat : AVC\r\nFormat/Info : Advanced Video Codec\r\nFormat profile : High@L4.1\r\nFormat settings : CABAC / 5 Ref Frames\r\nFormat settings, CABAC : Yes\r\nFormat settings, ReFrames : 5 frames\r\nCodec ID : V_MPEG4/ISO/AVC\r\nDuration : 1h 38min\r\nBit rate : 1454 kb/s\r\nWidth : 1280 pixels\r\nHeight : 720 pixels\r\nDisplay aspect ratio : 16:9\r\nFrame rate mode : Constant\r\nFrame rate : 23.976 FPS\r\nColor space : YUV\r\nChroma subsampling : 4:2:0\r\nBit depth : 8 bits\r\nScan type : Progressive\r\nBits/(Pixel*Frame) : 0.066\r\nStream size : 1.01 GiB (92%)\r\nWriting library : x264 core 142\r\nEncoding settings : cabac=1 / ref=5\r\nDefault : Yes\r\nForced : No\r\n\r\nAudio\r\n-----------\r\nFormat : AAC\r\nFormat/Info : Advanced Audio Codec\r\nFormat profile : LC\r\nCodec ID : A_AAC-2\r\nDuration : 1h 38min\r\nBit rate : 128 kb/s\r\nChannel(s) : 2 channels\r\nChannel positions : Front: L R\r\nSampling rate : 48.0 kHz\r\nCompression mode : Lossy\r\nStream size : 90.5 MiB (8%)\r\nTitle : Stereo\r\nLanguage : English\r\nDefault : Yes\r\nForced : No","last_updated":"2018-09-11T12:21:23.957Z","parsed":{"xt":"urn:btih:f55950ef754f513564d96553e231b0415ca82378","dn":"Adam 2009 720p HDRip x264-titler","tr":["udp://exodus.desync.com:6969","udp://open.demonii.com:1337","udp://tracker.coppersurfer.tk:6969","udp://tracker.leechers-paradise.org:6969","udp://zer0day.ch:1337"],"infoHash":"f55950ef754f513564d96553e231b0415ca82378","infoHashBuffer":{"type":"Buffer","data":[245,89,80,239,117,79,81,53,100,217,101,83,226,49,176,65,92,168,35,120]},"name":"Adam 2009 720p HDRip x264-titler","announce":["udp://exodus.desync.com:6969","udp://open.demonii.com:1337","udp://tracker.coppersurfer.tk:6969","udp://tracker.leechers-paradise.org:6969","udp://zer0day.ch:1337"],"urlList":[]}}